PathFileType	4	(X/Y/Z)	 s10c0102.trc
DataRate	CameraRate	NumFrames	NumMarkers	Units	OrigDataRate	OrigDataStartFrame	OrigNumFrames
200	200	4	50	mm	200	501	2000
Frame#	Time	racr			lacr			c7			jug			rlel			rdr			llel			ldr			s2			lic			ric			lasi			rasi			rpsi			lpsi			rgt			lgt			rth1			rth2			rth3			rth4			rlfc			rmfc			rsh1			rsh2			rsh3			rsh4			rlmal			rmmal			rcal			rtoe			rmt5			lth1			lth2			lth4			lth3			llfc			lmfc			llmal			lmmal			lcal			lmt5			lsh1			lsh2			lsh3			lsh4			ltoe			SBIKE			LBIKE			RBIKE			
		X1	Y1	Z1	X2	Y2	Z2	X3	Y3	Z3	X4	Y4	Z4	X5	Y5	Z5	X6	Y6	Z6	X7	Y7	Z7	X8	Y8	Z8	X9	Y9	Z9	X10	Y10	Z10	X11	Y11	Z11	X12	Y12	Z12	X13	Y13	Z13	X14	Y14	Z14	X15	Y15	Z15	X16	Y16	Z16	X17	Y17	Z17	X18	Y18	Z18	X19	Y19	Z19	X20	Y20	Z20	X21	Y21	Z21	X22	Y22	Z22	X23	Y23	Z23	X24	Y24	Z24	X25	Y25	Z25	X26	Y26	Z26	X27	Y27	Z27	X28	Y28	Z28	X29	Y29	Z29	X30	Y30	Z30	X31	Y31	Z31	X32	Y32	Z32	X33	Y33	Z33	X34	Y34	Z34	X35	Y35	Z35	X36	Y36	Z36	X37	Y37	Z37	X38	Y38	Z38	X39	Y39	Z39	X40	Y40	Z40	X41	Y41	Z41	X42	Y42	Z42	X43	Y43	Z43	X44	Y44	Z44	X45	Y45	Z45	X46	Y46	Z46	X47	Y47	Z47	X48	Y48	Z48	X49	Y49	Z49	X50	Y50	Z50	
501	2.5050	437.730758	1266.802468	-16.130938	499.717640	1266.013481	-309.886568	433.866135	1314.246784	-169.526938	422.554104	1168.248824	-168.347034	475.964285	1017.487503	67.848810	643.137490	878.524576	-4.882476	512.836325	1024.194288	-456.205899	663.626887	886.540401	-372.593578	-84.792585	1120.190254	-239.417835	95.218647	1126.944735	-384.654910	80.090190	1151.561963	-92.691691	117.217753	1040.810780	-347.345286	78.625296	1069.602994	-98.440541	-47.921640	1183.123562	-188.114855	-26.805854	1180.772218	-299.537711	-23.799426	1054.234026	-33.703500	-7.444311	990.292584	-415.589108	88.448096	984.685153	-0.994806	177.143374	980.854517	-7.636284	249.105654	936.793807	2.662885	186.148250	1014.122954	-22.202392	351.077357	892.853296	-8.718845	354.775133	874.196499	-132.174986	268.514201	811.483411	11.803073	229.235822	735.132011	-11.684456	158.043845	687.869258	-23.361656	253.788219	721.094702	-37.279270	85.193450	606.935467	-51.285703	121.205834	617.005244	-127.966315	30.751049	607.198106	-102.560319	244.447168	490.633467	-87.956146	155.855206	502.242831	-32.282400	41.778459	875.229275	-428.731862	95.193961	807.818463	-416.517288	128.109863	823.104149	-407.312078	106.020102	720.017388	-404.151250	151.207404	624.249975	-380.051029	147.002197	616.139010	-263.423183	105.528448	257.306583	-376.644786	120.762636	257.428637	-298.562587	53.600044	244.836031	-337.547123	203.871664	142.904545	-391.008762	107.478717	509.868683	-409.975737	131.710782	427.513907	-398.060043	109.737808	341.154963	-392.772911	162.988558	430.630898	-375.676365	288.510701	145.115460	-329.727914	-204.589366	834.068230	-224.769205	-78.239981	81.720526	-423.709436	-102.638459	80.567593	-24.441286	
502	2.5100	438.650684	1267.632914	-15.000772	500.084842	1267.817640	-308.873928	434.336383	1315.351123	-168.408875	423.003531	1169.378061	-167.202289	476.134184	1017.825264	67.398069	643.054093	878.600697	-5.020982	514.160155	1026.182927	-455.362251	664.003742	886.526474	-372.599028	-84.343633	1121.306787	-239.261308	96.312474	1128.303545	-384.343746	80.377584	1152.917971	-92.051544	118.886933	1042.439953	-347.766764	79.052345	1071.264648	-98.242553	-47.561146	1184.400318	-187.857802	-26.139447	1181.862142	-299.346849	-22.983888	1055.613551	-33.237024	-6.713769	991.135963	-415.037318	90.454305	986.278670	-1.370396	179.012953	982.453907	-8.819131	251.042791	938.475414	0.752494	187.925846	1015.922854	-23.069422	353.202724	895.676433	-11.101060	355.957368	876.907210	-135.273261	271.376202	813.408284	9.795597	232.807264	736.514130	-13.106437	162.035952	688.332525	-24.196444	257.469610	722.616965	-38.607735	89.926104	606.065974	-51.216429	125.160937	616.624389	-128.085782	34.849890	604.739261	-102.200038	251.266370	493.432277	-87.627332	162.487066	502.996210	-31.820164	42.322623	876.164978	-428.340312	95.636771	808.643469	-416.214646	128.577521	823.813447	-407.160229	106.308459	720.787057	-403.803684	151.345414	625.045791	-380.275201	148.379656	617.129239	-263.162613	100.934066	258.882080	-376.840249	116.269859	258.528781	-298.941052	48.833114	247.437540	-337.474056	196.837272	142.447343	-391.276349	106.048792	511.289910	-409.726972	129.209824	428.722979	-398.111959	106.086550	342.637242	-392.690994	160.667439	431.251336	-375.905612	281.498103	142.718088	-330.078327	-204.622087	834.080806	-224.748509	-78.250113	81.743734	-423.718612	-102.643876	80.563876	-24.432923	
503	2.5150	439.604619	1268.454431	-13.882283	500.288374	1269.601947	-307.946851	434.755096	1316.423707	-167.206900	423.302322	1170.610436	-166.037075	476.172463	1018.254436	67.068366	642.995048	878.683311	-5.198692	515.268605	1028.079849	-454.305319	664.350745	886.451120	-372.597755	-84.115867	1122.842610	-240.210860	97.107263	1129.583616	-383.838750	80.507888	1154.397945	-91.351083	119.490688	1043.801421	-347.124824	79.323370	1072.976892	-97.886971	-47.365241	1185.393382	-187.627794	-25.287762	1183.050320	-299.299089	-22.361386	1056.949078	-32.670974	-6.168004	991.987669	-414.488398	92.043270	987.581844	-1.730959	180.595268	983.905116	-9.925937	252.696401	939.714058	-1.101776	189.536512	1017.555909	-23.799116	354.953053	897.992662	-13.536376	356.665224	878.957721	-137.873303	273.820364	814.716705	7.625629	236.023826	737.394271	-14.672549	165.777871	688.354329	-25.087092	260.809171	723.576274	-40.057108	94.588300	604.691742	-51.268617	129.070928	615.673262	-128.347078	38.966867	601.906808	-101.898989	258.114005	496.040132	-87.261440	169.140589	503.390136	-31.403633	43.043269	877.113104	-427.826422	96.296802	809.575276	-415.638443	129.280249	824.853553	-406.860895	107.094011	721.783467	-403.267878	152.272993	626.057622	-380.324545	150.361207	618.228567	-263.022868	96.527117	260.769355	-376.954266	111.967096	259.895036	-299.241603	44.329007	250.422040	-337.341794	189.824036	142.318546	-391.545017	105.202566	513.047287	-409.470854	127.162829	430.172012	-398.022304	102.798387	344.340432	-392.483321	158.801972	432.195728	-376.127698	274.419831	140.404695	-330.415525	-204.632141	834.089133	-224.683357	-78.259348	81.745219	-423.706500	-102.655926	80.585739	-24.420791	
504	2.5200	440.530988	1269.206367	-12.815907	500.367844	1271.417747	-307.119873	435.071789	1317.542614	-166.114658	423.461964	1171.923023	-165.110589	476.125969	1018.406493	66.644124	642.913281	878.780624	-5.374053	516.189461	1029.832187	-453.053782	664.648760	886.394273	-372.581404	-83.837954	1123.908368	-239.916475	96.925621	1130.631741	-382.277468	80.534699	1155.924034	-90.392688	120.024567	1045.181516	-346.541818	79.445456	1074.618688	-97.220284	-47.263556	1186.712366	-187.312599	-24.804630	1184.231121	-299.151598	-22.018815	1058.125437	-32.303783	-5.585855	992.822496	-413.937842	93.420975	988.574942	-2.122082	182.005967	984.877556	-10.906152	254.091372	940.644931	-2.922285	190.843199	1018.720370	-24.537522	356.158531	899.855606	-15.741613	357.007354	880.760674	-140.664284	275.868292	815.850588	5.184788	238.852955	737.666008	-16.310923	169.212668	687.871199	-26.100935	263.774951	724.112554	-41.423567	99.165202	602.739002	-51.261239	132.874963	614.117423	-128.586806	42.986539	598.333628	-101.657204	264.922000	498.384105	-86.934401	175.772852	503.414980	-30.966915	43.830910	878.015467	-427.207260	98.020341	811.112848	-415.681619	130.198686	825.903990	-406.370267	108.309299	722.980649	-402.510097	153.824138	627.216319	-380.203807	152.892184	619.622147	-262.949255	92.271252	263.291811	-377.355067	107.725403	261.939895	-299.813308	39.932645	253.921691	-337.203999	182.765214	142.492892	-391.841151	104.942627	515.040320	-409.184143	125.587855	431.785610	-397.943981	99.834431	346.340509	-392.401584	157.372045	433.255829	-376.170389	267.310208	138.269235	-330.682487	-204.656976	834.086796	-224.644150	-78.245334	81.755432	-423.706706	-102.643136	80.579560	-24.421917	
